<?xml-stylesheet type="text/css" href="../style.css"?><svg xmlns="http://www.w3.org/2000/svg" viewBox="0 0 300 300"><path class="eight-pointed-star" d="M285.9 206.7l-.4 1.5-1.9.4-1.9-.4-91.6-16.6 17 93.7-1.2 2.3h-.8c-.8-.3-1.4-.6-1.9-1s-1-.8-1.3-1.4L149 208.6l-53 76.8c-.3.4-.7.8-1.3 1.3-.6.5-1.2.8-1.8 1.1l-1.5-.4-.4-1.9 17-93.7-93.7 17-2.3-1.2v-.6c.3-.8.6-1.4 1.1-2 .4-.6.9-1 1.3-1.3l76.8-53-77-53c-.5-.4-1-.8-1.4-1.4-.4-.5-.7-1.1-1-1.7l.4-1.4 1.9-.8 93.7 17-16.5-91.6-.4-1.9 1.2-2.3h.8c.5.3 1 .5 1.4.9.4.3 1 .8 1.6 1.4l53 76.6 52.8-76.6c.5-.8 1-1.3 1.4-1.6.4-.3 1.1-.5 1.8-.7l1.2.4.8 1.9-.4 1.9-16.6 91.6 91.6-16.6 1.9-.4 2.3 1.2v1c-.1.5-.4 1.1-.9 1.6-.5.6-.9 1.1-1.4 1.4l-76.6 52.8 76.6 53c.6.6 1.1 1.2 1.4 1.6.6.7.9 1.1 1.1 1.7z"/></svg>