<?xml-stylesheet type="text/css" href="../style.css"?><svg xmlns="http://www.w3.org/2000/svg" viewBox="0 0 300 300"><path class="six-pointed-star" d="M282.5 224v1.2l-2.2 1.2-1.6-.4-100.1-31.9-22 102.4c-.5 1.1-.9 1.7-1.2 2-.3.3-.7.4-1.4.4-.5-.1-1-.4-1.4-.8s-.7-.9-.8-1.4L129.4 194 29 226l-1.6.4-2-1.2V224l1.2-2 77.8-70.8-77.8-70.6-1.2-2v-1.2l2-1.2 1.6.4 100.3 31.7L151.1 6c.4-.8.8-1.4 1.3-1.9s.8-.7 1.1-.7c.7.3 1.2.6 1.6 1s.7.9 1 1.4l22.4 102.4 100.1-31.7 1.6-.4 2.2 1.2v1.2l-1.4 2-77.8 70.6 77.8 70.8 1.5 2.1z"/></svg>