<?xml-stylesheet type="text/css" href="../style.css"?>
<svg version="1.1" id="Layer_1" xmlns="http://www.w3.org/2000/svg" xmlns:xlink="http://www.w3.org/1999/xlink" x="0px" y="0px" viewBox="0 0 300 300" xml:space="preserve">
	<path class="six-pointed-star" d="M282.5,224v1.2l-2.2,1.2l-1.6-0.4l-100.1-31.9l-22,102.4c-0.5,1.1-0.9,1.7-1.2,2c-0.3,0.3-0.7,0.4-1.4,0.4
		c-0.5-0.1-1-0.4-1.4-0.8s-0.7-0.9-0.8-1.4l-22.4-102.7L29,226l-1.6,0.4l-2-1.2V224l1.2-2l77.8-70.8L26.6,80.6l-1.2-2v-1.2l2-1.2
		l1.6,0.4l100.3,31.7L151.1,6c0.4-0.8,0.8-1.4,1.3-1.9c0.5-0.5,0.8-0.7,1.1-0.7c0.7,0.3,1.2,0.6,1.6,1s0.7,0.9,1,1.4l22.4,102.4
		l100.1-31.7l1.6-0.4l2.2,1.2v1.2l-1.4,2l-77.8,70.6l77.8,70.8L282.5,224z"/>
</svg>
