<?xml-stylesheet type="text/css" href="../style.css"?>
<svg version="1.1" id="Layer_1" xmlns="http://www.w3.org/2000/svg" xmlns:xlink="http://www.w3.org/1999/xlink" x="0px" y="0px" viewBox="0 0 300 300" xml:space="preserve">
	<path class="eight-pointed-star" d="M285.9,206.7l-0.4,1.5l-1.9,0.4l-1.9-0.4l-91.6-16.6l17,93.7l-1.2,2.3h-0.8c-0.8-0.3-1.4-0.6-1.9-1c-0.5-0.4-1-0.8-1.3-1.4
		L149,208.6l-53,76.8c-0.3,0.4-0.7,0.8-1.3,1.3c-0.6,0.5-1.2,0.8-1.8,1.1l-1.5-0.4l-0.4-1.9l17-93.7l-93.7,17l-2.3-1.2v-0.6
		c0.3-0.8,0.6-1.4,1.1-2c0.4-0.6,0.9-1,1.3-1.3l76.8-53L14.2,97.7c-0.5-0.4-1-0.8-1.4-1.4c-0.4-0.5-0.7-1.1-1-1.7l0.4-1.4l1.9-0.8
		l93.7,17L91.3,17.8l-0.4-1.9l1.2-2.3h0.8c0.5,0.3,1,0.5,1.4,0.9c0.4,0.3,1,0.8,1.6,1.4l53,76.6l52.8-76.6c0.5-0.8,1-1.3,1.4-1.6
		c0.4-0.3,1.1-0.5,1.8-0.7l1.2,0.4l0.8,1.9l-0.4,1.9l-16.6,91.6l91.6-16.6l1.9-0.4l2.3,1.2v1c-0.1,0.5-0.4,1.1-0.9,1.6
		c-0.5,0.6-0.9,1.1-1.4,1.4l-76.6,52.8l76.6,53c0.6,0.6,1.1,1.2,1.4,1.6C285.4,205.7,285.7,206.1,285.9,206.7z"/>
</svg>
