<?xml-stylesheet type="text/css" href="../style.css"?>
<svg version="1.1" id="Layer_1" xmlns="http://www.w3.org/2000/svg" xmlns:xlink="http://www.w3.org/1999/xlink" x="0px" y="0px" viewBox="0 0 300 300" xml:space="preserve">
	<path class="four-pointed-shape" d="M289.1,155.3c-23,9.5-41.3,18.1-54.9,25.7c-13.6,7.6-24.3,15.2-31.9,22.7c-7.5,7.5-15,18-22.7,31.6
		c-7.6,13.6-16.3,32.2-26.1,55.8h-7.8c-9.9-23.6-18.7-42.2-26.3-55.8c-7.6-13.6-15.1-24.1-22.5-31.6c-7.6-7.5-18.3-15-31.9-22.7
		c-13.6-7.6-32-16.2-55.1-25.7v-7.8c23.2-9.5,41.7-18.1,55.3-25.7c13.6-7.6,24.2-15.2,31.7-22.7c7.4-7.5,14.9-18,22.5-31.6
		c7.6-13.6,16.4-32.2,26.3-55.8h7.8c9.8,23.6,18.5,42.2,26.1,55.8c7.6,13.6,15.2,24.1,22.7,31.6c7.4,7.5,17.9,15,31.5,22.7
		c13.6,7.6,32.1,16.2,55.3,25.7V155.3z"/>
</svg>
